<svg xmlns="http://www.w3.org/2000/svg" viewBox="0 0 64 80" x="0px" y="0px"><title>layer, layers</title><g><path d="M56.92,36.318,50.04,32l6.88-4.31a1.505,1.505,0,0,0,.7-1.27,1.482,1.482,0,0,0-.7-1.271L32.8,10.017a1.539,1.539,0,0,0-1.6,0L7.08,25.147a1.482,1.482,0,0,0-.7,1.271,1.505,1.505,0,0,0,.7,1.27L13.96,32l-6.88,4.32a1.5,1.5,0,0,0-.7,1.27,1.53,1.53,0,0,0,.7,1.27L31.2,53.978a1.512,1.512,0,0,0,1.6,0l24.12-15.12a1.53,1.53,0,0,0,.7-1.27A1.5,1.5,0,0,0,56.92,36.318Zm-46.22-9.9L32,13.058l21.3,13.36-6.76,4.24-.25.15L32,39.767,17.71,30.808l-.25-.15Z"/></g><text x="0" y="79" fill="#000000" font-size="5px" font-weight="bold" font-family="'Helvetica Neue', Helvetica, Arial-Unicode, Arial, Sans-serif">Created by The Icon Z</text><text x="0" y="84" fill="#000000" font-size="5px" font-weight="bold" font-family="'Helvetica Neue', Helvetica, Arial-Unicode, Arial, Sans-serif">from the Noun Project</text></svg>