<svg xmlns="http://www.w3.org/2000/svg" viewBox="0 0 32 40" x="0px" y="0px"><g><path d="M30,20a1.51,1.51,0,0,1-.84,1.37l-11.3,5.65a4.19,4.19,0,0,1-3.72,0L2.84,21.4a1.53,1.53,0,0,1,0-2.73l2.91-1.45,7.42,3.72a6.4,6.4,0,0,0,5.66,0l7.43-3.72,2.9,1.45A1.51,1.51,0,0,1,30,20ZM2.84,13.33,14.14,19a4.19,4.19,0,0,0,3.72,0l11.3-5.65a1.53,1.53,0,0,0,0-2.73L17.86,5a4.15,4.15,0,0,0-3.72,0L2.84,10.6a1.53,1.53,0,0,0,0,2.73Z"/></g><text x="0" y="47" fill="#000000" font-size="5px" font-weight="bold" font-family="'Helvetica Neue', Helvetica, Arial-Unicode, Arial, Sans-serif">Created by Ricons</text><text x="0" y="52" fill="#000000" font-size="5px" font-weight="bold" font-family="'Helvetica Neue', Helvetica, Arial-Unicode, Arial, Sans-serif">from the Noun Project</text></svg>