<svg xmlns="http://www.w3.org/2000/svg" viewBox="0 0 100 125" fill="none" x="0px" y="0px"><path d="M92.6362 71.318L80.0002 65L51.3442 79.328C50.927 79.5371 50.4668 79.6459 50.0002 79.6459C49.5336 79.6459 49.0734 79.5371 48.6562 79.328L20.0002 65L7.36419 71.318C6.86497 71.5668 6.445 71.9499 6.15145 72.4242C5.8579 72.8985 5.70239 73.4452 5.70239 74.003C5.70239 74.5608 5.8579 75.1076 6.15145 75.5819C6.445 76.0562 6.86497 76.4392 7.36419 76.688L48.6562 97.328C49.0734 97.5371 49.5336 97.6459 50.0002 97.6459C50.4668 97.6459 50.927 97.5371 51.3442 97.328L92.6362 76.682C93.1338 76.4326 93.5523 76.0497 93.8447 75.576C94.1371 75.1023 94.292 74.5567 94.292 74C94.292 73.4434 94.1371 72.8977 93.8447 72.424C93.5523 71.9504 93.1338 71.5674 92.6362 71.318Z" fill="black"/><path d="M92.6362 23.312L51.3442 2.67203C50.927 2.46298 50.4668 2.35413 50.0002 2.35413C49.5336 2.35413 49.0734 2.46298 48.6562 2.67203L7.36419 23.318C6.86497 23.5668 6.445 23.9499 6.15145 24.4242C5.8579 24.8985 5.70239 25.4452 5.70239 26.003C5.70239 26.5608 5.8579 27.1076 6.15145 27.5819C6.445 28.0562 6.86497 28.4392 7.36419 28.688L48.6562 49.328C49.0734 49.5371 49.5336 49.6459 50.0002 49.6459C50.4668 49.6459 50.927 49.5371 51.3442 49.328L92.6362 28.682C93.1354 28.4332 93.5554 28.0501 93.8489 27.5759C94.1425 27.1016 94.298 26.5548 94.298 25.997C94.298 25.4392 94.1425 24.8925 93.8489 24.4182C93.5554 23.9439 93.1354 23.5608 92.6362 23.312Z" fill="black"/><path d="M92.6362 47.318L80.0002 41L51.3442 55.328C50.927 55.537 50.4668 55.6459 50.0002 55.6459C49.5336 55.6459 49.0734 55.537 48.6562 55.328L20.0002 41L7.36419 47.318C6.86497 47.5668 6.445 47.9499 6.15145 48.4242C5.8579 48.8985 5.70239 49.4452 5.70239 50.003C5.70239 50.5608 5.8579 51.1075 6.15145 51.5818C6.445 52.0561 6.86497 52.4392 7.36419 52.688L48.6562 73.328C49.0734 73.537 49.5336 73.6459 50.0002 73.6459C50.4668 73.6459 50.927 73.537 51.3442 73.328L92.6362 52.682C93.1338 52.4326 93.5523 52.0496 93.8447 51.576C94.1371 51.1023 94.292 50.5566 94.292 50C94.292 49.4434 94.1371 48.8977 93.8447 48.424C93.5523 47.9504 93.1338 47.5674 92.6362 47.318Z" fill="black"/><text x="0" y="115" fill="#000000" font-size="5px" font-weight="bold" font-family="'Helvetica Neue', Helvetica, Arial-Unicode, Arial, Sans-serif">Created by Lightspeed Flame</text><text x="0" y="120" fill="#000000" font-size="5px" font-weight="bold" font-family="'Helvetica Neue', Helvetica, Arial-Unicode, Arial, Sans-serif">from the Noun Project</text></svg>